<mxfile host="Electron" agent="Mozilla/5.0 (Windows NT 10.0; Win64; x64) AppleWebKit/537.36 (KHTML, like Gecko) draw.io/24.7.17 Chrome/128.0.6613.36 Electron/32.0.1 Safari/537.36" version="24.7.17">
  <diagram id="C5RBs43oDa-KdzZeNtuy" name="Page-1">
    <mxGraphModel dx="607" dy="836" grid="1" gridSize="10" guides="1" tooltips="1" connect="1" arrows="1" fold="1" page="1" pageScale="1" pageWidth="827" pageHeight="1169" math="0" shadow="0">
      <root>
        <mxCell id="WIyWlLk6GJQsqaUBKTNV-0" />
        <mxCell id="WIyWlLk6GJQsqaUBKTNV-1" parent="WIyWlLk6GJQsqaUBKTNV-0" />
        <mxCell id="vrRoGwOtY9owa4qluUf4-0" value="sdrive_files" style="swimlane;whiteSpace=wrap;html=1;startSize=23;fillColor=#d5e8d4;gradientColor=#97d077;strokeColor=#82b366;container=0;strokeWidth=2;fontColor=#000000;" vertex="1" parent="WIyWlLk6GJQsqaUBKTNV-1">
          <mxGeometry x="935" y="50" width="620" height="1025" as="geometry" />
        </mxCell>
        <mxCell id="vrRoGwOtY9owa4qluUf4-1" value="1" style="text;html=1;align=center;verticalAlign=middle;whiteSpace=wrap;rounded=0;fontColor=#67AB9F;fontStyle=1" vertex="1" parent="vrRoGwOtY9owa4qluUf4-0">
          <mxGeometry x="220" y="467" width="60" height="30" as="geometry" />
        </mxCell>
        <mxCell id="vrRoGwOtY9owa4qluUf4-2" value="N" style="text;html=1;align=center;verticalAlign=middle;whiteSpace=wrap;rounded=0;fontColor=#FF0000;fontStyle=1" vertex="1" parent="vrRoGwOtY9owa4qluUf4-0">
          <mxGeometry x="5" y="90" width="60" height="30" as="geometry" />
        </mxCell>
        <mxCell id="vrRoGwOtY9owa4qluUf4-3" value="1" style="text;html=1;align=center;verticalAlign=middle;whiteSpace=wrap;rounded=0;fontStyle=1" vertex="1" parent="vrRoGwOtY9owa4qluUf4-0">
          <mxGeometry x="235" y="406" width="60" height="30" as="geometry" />
        </mxCell>
        <mxCell id="vrRoGwOtY9owa4qluUf4-4" value="N" style="text;html=1;align=center;verticalAlign=middle;whiteSpace=wrap;rounded=0;fontStyle=1" vertex="1" parent="vrRoGwOtY9owa4qluUf4-0">
          <mxGeometry x="235" y="210" width="60" height="30" as="geometry" />
        </mxCell>
        <mxCell id="vrRoGwOtY9owa4qluUf4-5" value="1" style="text;html=1;align=center;verticalAlign=middle;whiteSpace=wrap;rounded=0;fontStyle=1" vertex="1" parent="vrRoGwOtY9owa4qluUf4-0">
          <mxGeometry x="235" y="467" width="60" height="30" as="geometry" />
        </mxCell>
        <mxCell id="vrRoGwOtY9owa4qluUf4-6" value="N" style="text;html=1;align=center;verticalAlign=middle;whiteSpace=wrap;rounded=0;fontStyle=1" vertex="1" parent="vrRoGwOtY9owa4qluUf4-0">
          <mxGeometry x="235" y="150" width="60" height="30" as="geometry" />
        </mxCell>
        <mxCell id="vrRoGwOtY9owa4qluUf4-7" value="N" style="text;html=1;align=center;verticalAlign=middle;whiteSpace=wrap;rounded=0;fontColor=#FF0000;fontStyle=1" vertex="1" parent="vrRoGwOtY9owa4qluUf4-0">
          <mxGeometry x="5" y="490" width="60" height="30" as="geometry" />
        </mxCell>
        <mxCell id="vrRoGwOtY9owa4qluUf4-8" value="1" style="text;html=1;align=center;verticalAlign=middle;whiteSpace=wrap;rounded=0;fontColor=#FF0000;fontStyle=1" vertex="1" parent="vrRoGwOtY9owa4qluUf4-0">
          <mxGeometry x="-13" y="866" width="60" height="30" as="geometry" />
        </mxCell>
        <mxCell id="vrRoGwOtY9owa4qluUf4-9" value="1" style="text;html=1;align=center;verticalAlign=middle;whiteSpace=wrap;rounded=0;fontColor=#FF0000;fontStyle=1" vertex="1" parent="vrRoGwOtY9owa4qluUf4-0">
          <mxGeometry x="357" y="924" width="60" height="30" as="geometry" />
        </mxCell>
        <mxCell id="vrRoGwOtY9owa4qluUf4-10" value="1" style="text;html=1;align=center;verticalAlign=middle;whiteSpace=wrap;rounded=0;fontStyle=1" vertex="1" parent="vrRoGwOtY9owa4qluUf4-0">
          <mxGeometry x="357" y="810" width="60" height="30" as="geometry" />
        </mxCell>
        <mxCell id="vrRoGwOtY9owa4qluUf4-11" value="1" style="text;html=1;align=center;verticalAlign=middle;whiteSpace=wrap;rounded=0;fontStyle=1" vertex="1" parent="vrRoGwOtY9owa4qluUf4-0">
          <mxGeometry x="357" y="836" width="60" height="30" as="geometry" />
        </mxCell>
        <mxCell id="vrRoGwOtY9owa4qluUf4-12" value="files" style="swimlane;fontStyle=0;childLayout=stackLayout;horizontal=1;startSize=30;horizontalStack=0;resizeParent=1;resizeParentMax=0;resizeLast=0;collapsible=1;marginBottom=0;whiteSpace=wrap;html=1;fillColor=#f8cecc;strokeColor=#b85450;strokeWidth=2;container=0;" vertex="1" parent="WIyWlLk6GJQsqaUBKTNV-1">
          <mxGeometry x="982" y="435" width="210" height="90" as="geometry" />
        </mxCell>
        <mxCell id="vrRoGwOtY9owa4qluUf4-13" value="FK cryptedowner_files" style="text;strokeColor=#b85450;fillColor=#f8cecc;align=left;verticalAlign=middle;spacingLeft=4;spacingRight=4;overflow=hidden;points=[[0,0.5],[1,0.5]];portConstraint=eastwest;rotatable=0;whiteSpace=wrap;html=1;strokeWidth=2;container=0;" vertex="1" parent="WIyWlLk6GJQsqaUBKTNV-1">
          <mxGeometry x="982" y="555" width="210" height="30" as="geometry" />
        </mxCell>
        <mxCell id="vrRoGwOtY9owa4qluUf4-14" value="cryptedname_files" style="text;strokeColor=#b85450;fillColor=#f8cecc;align=left;verticalAlign=middle;spacingLeft=4;spacingRight=4;overflow=hidden;points=[[0,0.5],[1,0.5]];portConstraint=eastwest;rotatable=0;whiteSpace=wrap;html=1;strokeWidth=2;container=0;" vertex="1" parent="WIyWlLk6GJQsqaUBKTNV-1">
          <mxGeometry x="982" y="525" width="210" height="30" as="geometry" />
        </mxCell>
        <mxCell id="vrRoGwOtY9owa4qluUf4-15" value="filetype_files" style="text;strokeColor=#b85450;fillColor=#f8cecc;align=left;verticalAlign=middle;spacingLeft=4;spacingRight=4;overflow=hidden;points=[[0,0.5],[1,0.5]];portConstraint=eastwest;rotatable=0;whiteSpace=wrap;html=1;strokeWidth=2;container=0;" vertex="1" parent="WIyWlLk6GJQsqaUBKTNV-1">
          <mxGeometry x="982" y="585" width="210" height="30" as="geometry" />
        </mxCell>
        <mxCell id="vrRoGwOtY9owa4qluUf4-16" value="delete_files" style="text;strokeColor=#b85450;fillColor=#f8cecc;align=left;verticalAlign=middle;spacingLeft=4;spacingRight=4;overflow=hidden;points=[[0,0.5],[1,0.5]];portConstraint=eastwest;rotatable=0;whiteSpace=wrap;html=1;strokeWidth=2;container=0;" vertex="1" parent="WIyWlLk6GJQsqaUBKTNV-1">
          <mxGeometry x="982" y="615" width="210" height="30" as="geometry" />
        </mxCell>
        <mxCell id="vrRoGwOtY9owa4qluUf4-17" value="dateofdelete_files" style="text;strokeColor=#b85450;fillColor=#f8cecc;align=left;verticalAlign=middle;spacingLeft=4;spacingRight=4;overflow=hidden;points=[[0,0.5],[1,0.5]];portConstraint=eastwest;rotatable=0;whiteSpace=wrap;html=1;strokeWidth=2;container=0;" vertex="1" parent="WIyWlLk6GJQsqaUBKTNV-1">
          <mxGeometry x="982" y="645" width="210" height="30" as="geometry" />
        </mxCell>
        <mxCell id="vrRoGwOtY9owa4qluUf4-18" value="origin_file" style="text;strokeColor=#b85450;fillColor=#f8cecc;align=left;verticalAlign=middle;spacingLeft=4;spacingRight=4;overflow=hidden;points=[[0,0.5],[1,0.5]];portConstraint=eastwest;rotatable=0;whiteSpace=wrap;html=1;strokeWidth=2;container=0;" vertex="1" parent="WIyWlLk6GJQsqaUBKTNV-1">
          <mxGeometry x="982" y="705" width="210" height="30" as="geometry" />
        </mxCell>
        <mxCell id="vrRoGwOtY9owa4qluUf4-19" value="oldcryptedname_file" style="text;strokeColor=#b85450;fillColor=#f8cecc;align=left;verticalAlign=middle;spacingLeft=4;spacingRight=4;overflow=hidden;points=[[0,0.5],[1,0.5]];portConstraint=eastwest;rotatable=0;whiteSpace=wrap;html=1;strokeWidth=2;container=0;" vertex="1" parent="WIyWlLk6GJQsqaUBKTNV-1">
          <mxGeometry x="982" y="735" width="210" height="30" as="geometry" />
        </mxCell>
        <mxCell id="vrRoGwOtY9owa4qluUf4-20" value="dateofupload_files" style="text;strokeColor=#b85450;fillColor=#f8cecc;align=left;verticalAlign=middle;spacingLeft=4;spacingRight=4;overflow=hidden;points=[[0,0.5],[1,0.5]];portConstraint=eastwest;rotatable=0;whiteSpace=wrap;html=1;strokeWidth=2;container=0;" vertex="1" parent="WIyWlLk6GJQsqaUBKTNV-1">
          <mxGeometry x="982" y="675" width="210" height="30" as="geometry" />
        </mxCell>
        <mxCell id="vrRoGwOtY9owa4qluUf4-21" value="PK id_files" style="text;strokeColor=#b85450;fillColor=#f8cecc;align=left;verticalAlign=middle;spacingLeft=4;spacingRight=4;overflow=hidden;points=[[0,0.5],[1,0.5]];portConstraint=eastwest;rotatable=0;whiteSpace=wrap;html=1;strokeWidth=2;container=0;" vertex="1" parent="WIyWlLk6GJQsqaUBKTNV-1">
          <mxGeometry x="982" y="465" width="210" height="30" as="geometry" />
        </mxCell>
        <mxCell id="vrRoGwOtY9owa4qluUf4-22" value="originalname_files" style="text;strokeColor=#b85450;fillColor=#f8cecc;align=left;verticalAlign=middle;spacingLeft=4;spacingRight=4;overflow=hidden;points=[[0,0.5],[1,0.5]];portConstraint=eastwest;rotatable=0;whiteSpace=wrap;html=1;strokeWidth=2;container=0;" vertex="1" parent="WIyWlLk6GJQsqaUBKTNV-1">
          <mxGeometry x="982" y="495" width="210" height="30" as="geometry" />
        </mxCell>
        <mxCell id="vrRoGwOtY9owa4qluUf4-23" value="storages_files" style="swimlane;fontStyle=0;childLayout=stackLayout;horizontal=1;startSize=30;horizontalStack=0;resizeParent=1;resizeParentMax=0;resizeLast=0;collapsible=1;marginBottom=0;whiteSpace=wrap;html=1;strokeWidth=2;fillColor=#fad7ac;strokeColor=#b46504;container=0;" vertex="1" parent="WIyWlLk6GJQsqaUBKTNV-1">
          <mxGeometry x="1332" y="805" width="210" height="90" as="geometry" />
        </mxCell>
        <mxCell id="vrRoGwOtY9owa4qluUf4-24" value="date_storages_files" style="text;strokeColor=#b46504;fillColor=#fad7ac;align=left;verticalAlign=middle;spacingLeft=4;spacingRight=4;overflow=hidden;points=[[0,0.5],[1,0.5]];portConstraint=eastwest;rotatable=0;whiteSpace=wrap;html=1;strokeWidth=2;container=0;" vertex="1" parent="WIyWlLk6GJQsqaUBKTNV-1">
          <mxGeometry x="1332" y="925" width="210" height="30" as="geometry" />
        </mxCell>
        <mxCell id="vrRoGwOtY9owa4qluUf4-25" value="id_files_storages_files" style="text;strokeColor=#b46504;fillColor=#fad7ac;align=left;verticalAlign=middle;spacingLeft=4;spacingRight=4;overflow=hidden;points=[[0,0.5],[1,0.5]];portConstraint=eastwest;rotatable=0;whiteSpace=wrap;html=1;strokeWidth=2;container=0;" vertex="1" parent="WIyWlLk6GJQsqaUBKTNV-1">
          <mxGeometry x="1332" y="895" width="210" height="30" as="geometry" />
        </mxCell>
        <mxCell id="vrRoGwOtY9owa4qluUf4-26" value="active_storages_files" style="text;strokeColor=#b46504;fillColor=#fad7ac;align=left;verticalAlign=middle;spacingLeft=4;spacingRight=4;overflow=hidden;points=[[0,0.5],[1,0.5]];portConstraint=eastwest;rotatable=0;whiteSpace=wrap;html=1;strokeWidth=2;container=0;" vertex="1" parent="WIyWlLk6GJQsqaUBKTNV-1">
          <mxGeometry x="1332" y="955" width="210" height="30" as="geometry" />
        </mxCell>
        <mxCell id="vrRoGwOtY9owa4qluUf4-27" value="FK modificator_storages_files" style="text;strokeColor=#b46504;fillColor=#fad7ac;align=left;verticalAlign=middle;spacingLeft=4;spacingRight=4;overflow=hidden;points=[[0,0.5],[1,0.5]];portConstraint=eastwest;rotatable=0;whiteSpace=wrap;html=1;strokeWidth=2;container=0;" vertex="1" parent="WIyWlLk6GJQsqaUBKTNV-1">
          <mxGeometry x="1332" y="985" width="210" height="30" as="geometry" />
        </mxCell>
        <mxCell id="vrRoGwOtY9owa4qluUf4-28" value="file_version_storages_files" style="text;strokeColor=#b46504;fillColor=#fad7ac;align=left;verticalAlign=middle;spacingLeft=4;spacingRight=4;overflow=hidden;points=[[0,0.5],[1,0.5]];portConstraint=eastwest;rotatable=0;whiteSpace=wrap;html=1;strokeWidth=2;container=0;" vertex="1" parent="WIyWlLk6GJQsqaUBKTNV-1">
          <mxGeometry x="1332" y="1015" width="210" height="30" as="geometry" />
        </mxCell>
        <mxCell id="vrRoGwOtY9owa4qluUf4-29" value="PK id_storages_files" style="text;strokeColor=#b46504;fillColor=#fad7ac;align=left;verticalAlign=middle;spacingLeft=4;spacingRight=4;overflow=hidden;points=[[0,0.5],[1,0.5]];portConstraint=eastwest;rotatable=0;whiteSpace=wrap;html=1;strokeWidth=2;container=0;" vertex="1" parent="WIyWlLk6GJQsqaUBKTNV-1">
          <mxGeometry x="1332" y="835" width="210" height="30" as="geometry" />
        </mxCell>
        <mxCell id="vrRoGwOtY9owa4qluUf4-30" value="id_storages_storages_files" style="text;strokeColor=#b46504;fillColor=#fad7ac;align=left;verticalAlign=middle;spacingLeft=4;spacingRight=4;overflow=hidden;points=[[0,0.5],[1,0.5]];portConstraint=eastwest;rotatable=0;whiteSpace=wrap;html=1;strokeWidth=2;container=0;" vertex="1" parent="WIyWlLk6GJQsqaUBKTNV-1">
          <mxGeometry x="1332" y="865" width="210" height="30" as="geometry" />
        </mxCell>
        <mxCell id="vrRoGwOtY9owa4qluUf4-31" value="fshare" style="swimlane;fontStyle=0;childLayout=stackLayout;horizontal=1;startSize=30;horizontalStack=0;resizeParent=1;resizeParentMax=0;resizeLast=0;collapsible=1;marginBottom=0;whiteSpace=wrap;html=1;strokeWidth=2;fillColor=#ffe6cc;strokeColor=#d79b00;container=0;" vertex="1" parent="WIyWlLk6GJQsqaUBKTNV-1">
          <mxGeometry x="982" y="90" width="210" height="90" as="geometry" />
        </mxCell>
        <mxCell id="vrRoGwOtY9owa4qluUf4-32" value="file_fshare" style="text;strokeColor=#d79b00;fillColor=#ffe6cc;align=left;verticalAlign=middle;spacingLeft=4;spacingRight=4;overflow=hidden;points=[[0,0.5],[1,0.5]];portConstraint=eastwest;rotatable=0;whiteSpace=wrap;html=1;strokeWidth=2;container=0;" vertex="1" parent="WIyWlLk6GJQsqaUBKTNV-1">
          <mxGeometry x="982" y="210" width="210" height="30" as="geometry" />
        </mxCell>
        <mxCell id="vrRoGwOtY9owa4qluUf4-33" value="FK sharedowner_fshare" style="text;strokeColor=#d79b00;fillColor=#ffe6cc;align=left;verticalAlign=middle;spacingLeft=4;spacingRight=4;overflow=hidden;points=[[0,0.5],[1,0.5]];portConstraint=eastwest;rotatable=0;whiteSpace=wrap;html=1;strokeWidth=2;container=0;" vertex="1" parent="WIyWlLk6GJQsqaUBKTNV-1">
          <mxGeometry x="982" y="180" width="210" height="30" as="geometry" />
        </mxCell>
        <mxCell id="vrRoGwOtY9owa4qluUf4-34" value="date_fshare" style="text;strokeColor=#d79b00;fillColor=#ffe6cc;align=left;verticalAlign=middle;spacingLeft=4;spacingRight=4;overflow=hidden;points=[[0,0.5],[1,0.5]];portConstraint=eastwest;rotatable=0;whiteSpace=wrap;html=1;strokeWidth=2;container=0;" vertex="1" parent="WIyWlLk6GJQsqaUBKTNV-1">
          <mxGeometry x="982" y="240" width="210" height="30" as="geometry" />
        </mxCell>
        <mxCell id="vrRoGwOtY9owa4qluUf4-35" value="id_files_fshare" style="text;strokeColor=#d79b00;fillColor=#ffe6cc;align=left;verticalAlign=middle;spacingLeft=4;spacingRight=4;overflow=hidden;points=[[0,0.5],[1,0.5]];portConstraint=eastwest;rotatable=0;whiteSpace=wrap;html=1;strokeWidth=2;container=0;" vertex="1" parent="WIyWlLk6GJQsqaUBKTNV-1">
          <mxGeometry x="982" y="270" width="210" height="30" as="geometry" />
        </mxCell>
        <mxCell id="vrRoGwOtY9owa4qluUf4-36" value="PK id_fshare" style="text;strokeColor=#d79b00;fillColor=#ffe6cc;align=left;verticalAlign=middle;spacingLeft=4;spacingRight=4;overflow=hidden;points=[[0,0.5],[1,0.5]];portConstraint=eastwest;rotatable=0;whiteSpace=wrap;html=1;strokeWidth=2;container=0;" vertex="1" parent="WIyWlLk6GJQsqaUBKTNV-1">
          <mxGeometry x="982" y="120" width="210" height="30" as="geometry" />
        </mxCell>
        <mxCell id="vrRoGwOtY9owa4qluUf4-37" value="FK originalowner_fshare" style="text;strokeColor=#d79b00;fillColor=#ffe6cc;align=left;verticalAlign=middle;spacingLeft=4;spacingRight=4;overflow=hidden;points=[[0,0.5],[1,0.5]];portConstraint=eastwest;rotatable=0;whiteSpace=wrap;html=1;strokeWidth=2;container=0;" vertex="1" parent="WIyWlLk6GJQsqaUBKTNV-1">
          <mxGeometry x="982" y="150" width="210" height="30" as="geometry" />
        </mxCell>
        <mxCell id="vrRoGwOtY9owa4qluUf4-38" value="storages" style="swimlane;fontStyle=0;childLayout=stackLayout;horizontal=1;startSize=30;horizontalStack=0;resizeParent=1;resizeParentMax=0;resizeLast=0;collapsible=1;marginBottom=0;whiteSpace=wrap;html=1;strokeWidth=2;fillColor=#fff2cc;strokeColor=#d6b656;container=0;" vertex="1" parent="WIyWlLk6GJQsqaUBKTNV-1">
          <mxGeometry x="962" y="835" width="210" height="90" as="geometry" />
        </mxCell>
        <mxCell id="vrRoGwOtY9owa4qluUf4-39" value="date_storages" style="text;strokeColor=#d6b656;fillColor=#fff2cc;align=left;verticalAlign=middle;spacingLeft=4;spacingRight=4;overflow=hidden;points=[[0,0.5],[1,0.5]];portConstraint=eastwest;rotatable=0;whiteSpace=wrap;html=1;strokeWidth=2;container=0;" vertex="1" parent="WIyWlLk6GJQsqaUBKTNV-1">
          <mxGeometry x="962" y="955" width="210" height="30" as="geometry" />
        </mxCell>
        <mxCell id="vrRoGwOtY9owa4qluUf4-40" value="FK owner_storages" style="text;strokeColor=#d6b656;fillColor=#fff2cc;align=left;verticalAlign=middle;spacingLeft=4;spacingRight=4;overflow=hidden;points=[[0,0.5],[1,0.5]];portConstraint=eastwest;rotatable=0;whiteSpace=wrap;html=1;strokeWidth=2;container=0;" vertex="1" parent="WIyWlLk6GJQsqaUBKTNV-1">
          <mxGeometry x="962" y="925" width="210" height="30" as="geometry" />
        </mxCell>
        <mxCell id="vrRoGwOtY9owa4qluUf4-41" value="active_storages" style="text;strokeColor=#d6b656;fillColor=#fff2cc;align=left;verticalAlign=middle;spacingLeft=4;spacingRight=4;overflow=hidden;points=[[0,0.5],[1,0.5]];portConstraint=eastwest;rotatable=0;whiteSpace=wrap;html=1;strokeWidth=2;container=0;" vertex="1" parent="WIyWlLk6GJQsqaUBKTNV-1">
          <mxGeometry x="962" y="985" width="210" height="30" as="geometry" />
        </mxCell>
        <mxCell id="vrRoGwOtY9owa4qluUf4-42" value="PK id_storages" style="text;strokeColor=#d6b656;fillColor=#fff2cc;align=left;verticalAlign=middle;spacingLeft=4;spacingRight=4;overflow=hidden;points=[[0,0.5],[1,0.5]];portConstraint=eastwest;rotatable=0;whiteSpace=wrap;html=1;strokeWidth=2;container=0;" vertex="1" parent="WIyWlLk6GJQsqaUBKTNV-1">
          <mxGeometry x="962" y="865" width="210" height="30" as="geometry" />
        </mxCell>
        <mxCell id="vrRoGwOtY9owa4qluUf4-43" value="name_storages" style="text;strokeColor=#d6b656;fillColor=#fff2cc;align=left;verticalAlign=middle;spacingLeft=4;spacingRight=4;overflow=hidden;points=[[0,0.5],[1,0.5]];portConstraint=eastwest;rotatable=0;whiteSpace=wrap;html=1;strokeWidth=2;container=0;" vertex="1" parent="WIyWlLk6GJQsqaUBKTNV-1">
          <mxGeometry x="962" y="895" width="210" height="30" as="geometry" />
        </mxCell>
        <mxCell id="vrRoGwOtY9owa4qluUf4-44" value="" style="endArrow=none;html=1;rounded=0;exitX=1;exitY=0.5;exitDx=0;exitDy=0;entryX=0;entryY=0.5;entryDx=0;entryDy=0;" edge="1" parent="WIyWlLk6GJQsqaUBKTNV-1" source="vrRoGwOtY9owa4qluUf4-38" target="vrRoGwOtY9owa4qluUf4-30">
          <mxGeometry width="50" height="50" relative="1" as="geometry">
            <mxPoint x="1400" y="660" as="sourcePoint" />
            <mxPoint x="1330" y="880" as="targetPoint" />
          </mxGeometry>
        </mxCell>
        <mxCell id="vrRoGwOtY9owa4qluUf4-45" value="" style="endArrow=none;html=1;rounded=0;exitX=1;exitY=0.5;exitDx=0;exitDy=0;entryX=0;entryY=0.5;entryDx=0;entryDy=0;fontColor=#7EA6E0;" edge="1" parent="WIyWlLk6GJQsqaUBKTNV-1" source="vrRoGwOtY9owa4qluUf4-14" target="vrRoGwOtY9owa4qluUf4-25">
          <mxGeometry width="50" height="50" relative="1" as="geometry">
            <mxPoint x="1300" y="610" as="sourcePoint" />
            <mxPoint x="1350" y="560" as="targetPoint" />
            <Array as="points">
              <mxPoint x="1260" y="540" />
              <mxPoint x="1260" y="480" />
              <mxPoint x="1260" y="910" />
            </Array>
          </mxGeometry>
        </mxCell>
        <mxCell id="vrRoGwOtY9owa4qluUf4-46" value="" style="endArrow=none;html=1;rounded=0;entryX=1;entryY=0.5;entryDx=0;entryDy=0;" edge="1" parent="WIyWlLk6GJQsqaUBKTNV-1" target="vrRoGwOtY9owa4qluUf4-35">
          <mxGeometry width="50" height="50" relative="1" as="geometry">
            <mxPoint x="1260" y="480" as="sourcePoint" />
            <mxPoint x="1342" y="920" as="targetPoint" />
            <Array as="points">
              <mxPoint x="1192" y="480" />
              <mxPoint x="1260" y="480" />
              <mxPoint x="1260" y="285" />
            </Array>
          </mxGeometry>
        </mxCell>
        <mxCell id="vrRoGwOtY9owa4qluUf4-47" value="" style="endArrow=none;html=1;rounded=0;entryX=1;entryY=0.5;entryDx=0;entryDy=0;fontColor=#67AB9F;strokeColor=#67AB9F;strokeWidth=2;" edge="1" parent="WIyWlLk6GJQsqaUBKTNV-1" target="vrRoGwOtY9owa4qluUf4-32">
          <mxGeometry width="50" height="50" relative="1" as="geometry">
            <mxPoint x="1190" y="540" as="sourcePoint" />
            <mxPoint x="1202" y="295" as="targetPoint" />
            <Array as="points">
              <mxPoint x="1260" y="540" />
              <mxPoint x="1300" y="540" />
              <mxPoint x="1300" y="225" />
              <mxPoint x="1260" y="225" />
            </Array>
          </mxGeometry>
        </mxCell>
        <mxCell id="vrRoGwOtY9owa4qluUf4-48" value="N" style="text;html=1;align=center;verticalAlign=middle;whiteSpace=wrap;rounded=0;fontColor=#FF0000;fontStyle=1" vertex="1" parent="WIyWlLk6GJQsqaUBKTNV-1">
          <mxGeometry x="940" y="172" width="60" height="30" as="geometry" />
        </mxCell>
      </root>
    </mxGraphModel>
  </diagram>
</mxfile>
